<svg width="40" height="40" viewBox="0 0 40 40" fill="none" xmlns="http://www.w3.org/2000/svg">
<rect x="0.25" y="0.25" width="39.5" height="39.5" rx="19.75" fill="white"/>
<path d="M18.2895 17.8373V17.0074C18.0014 16.9618 17.7105 16.9368 17.4188 16.9326C14.5953 16.9266 12.0955 18.7564 11.2476 21.4495C10.3997 24.1427 11.4006 27.0745 13.7182 28.6871C12.8683 27.7775 12.2999 26.6414 12.0815 25.4159C11.863 24.1904 12.004 22.9279 12.4873 21.7807C12.9706 20.6335 13.7757 19.6508 14.8052 18.9511C15.8348 18.2514 17.0448 17.8646 18.2893 17.8374L18.2895 17.8373Z" fill="#25F4EE"/>
<path d="M18.4473 27.2383C20.026 27.2361 21.3236 25.9925 21.3927 24.4153V10.3413H23.9638C23.9114 10.0472 23.8863 9.74892 23.8891 9.4502L20.3723 9.4502V23.5106C20.3138 25.0958 19.013 26.3514 17.4268 26.354C16.9528 26.3499 16.4866 26.2334 16.0664 26.0139C16.3387 26.3911 16.6963 26.6987 17.1101 26.9115C17.5238 27.1243 17.982 27.2363 18.4473 27.2383ZM28.7663 15.1165V14.3342C27.82 14.3346 26.8947 14.0554 26.1066 13.5316C26.7975 14.3348 27.7311 14.8911 28.7663 15.1165Z" fill="#25F4EE"/>
<path d="M26.1042 13.5321C25.3278 12.6481 24.8998 11.5116 24.9002 10.335H23.9614C24.0827 10.9855 24.3352 11.6045 24.7036 12.1542C25.072 12.7039 25.5486 13.1727 26.1042 13.5321ZM17.4176 20.4501C16.7592 20.4534 16.1208 20.6768 15.6039 21.0846C15.087 21.4925 14.7213 22.0615 14.565 22.701C14.4086 23.3406 14.4705 24.0141 14.7408 24.6145C15.0112 25.2148 15.4745 25.7076 16.0571 26.0144C15.7386 25.5746 15.5478 25.0553 15.5059 24.5139C15.464 23.9725 15.5726 23.43 15.8197 22.9464C16.0668 22.4629 16.4427 22.057 16.906 21.7737C17.3693 21.4904 17.9018 21.3407 18.4449 21.3411C18.7401 21.345 19.0332 21.3909 19.3155 21.4776V17.8992C19.0273 17.856 18.7363 17.8333 18.4449 17.8312H18.2883V20.5521C18.0046 20.476 17.7113 20.4416 17.4176 20.4501Z" fill="#FE2C55"/>
<path d="M28.7657 15.1167V17.8377C27.0139 17.8343 25.3075 17.2798 23.8884 16.2527V23.402C23.8809 26.9694 20.9868 29.8574 17.4194 29.8574C16.0945 29.8598 14.8015 29.451 13.7188 28.6874C14.6017 29.6371 15.7501 30.2988 17.0144 30.5865C18.2788 30.8741 19.6005 30.7744 20.8073 30.3002C22.0142 29.826 23.0502 28.9993 23.7806 27.9279C24.5109 26.8565 24.9017 25.59 24.902 24.2933V17.1643C26.3259 18.1846 28.0343 18.7318 29.786 18.7288V15.2253C29.4431 15.2243 29.1011 15.1879 28.7657 15.1167Z" fill="#FE2C55"/>
<path d="M23.8898 23.4023V16.253C25.3133 17.2742 27.022 17.8216 28.7738 17.8175V15.0966C27.7389 14.8781 26.803 14.329 26.1074 13.5321C25.5518 13.1727 25.0752 12.7039 24.7068 12.1542C24.3384 11.6045 24.0858 10.9855 23.9646 10.335H21.3935V24.416C21.3684 25.029 21.1531 25.6189 20.7773 26.1038C20.4016 26.5887 19.8842 26.9445 19.2969 27.1218C18.7097 27.299 18.0818 27.289 17.5005 27.093C16.9192 26.897 16.4134 26.5248 16.0534 26.0281C15.4707 25.7214 15.0073 25.2286 14.7369 24.6282C14.4664 24.0278 14.4045 23.3543 14.5609 22.7146C14.7173 22.075 15.083 21.506 15.6 21.0981C16.117 20.6902 16.7554 20.4669 17.4139 20.4636C17.7093 20.4663 18.0026 20.5121 18.2846 20.5997V17.8787C17.0334 17.9 15.8154 18.2848 14.7791 18.9863C13.7428 19.6877 12.933 20.6756 12.4484 21.8294C11.9638 22.9831 11.8254 24.2529 12.0501 25.484C12.2747 26.7151 12.8526 27.8542 13.7135 28.7625C14.8068 29.5009 16.1017 29.8834 17.4208 29.8577C20.9882 29.8577 23.8823 26.9696 23.8898 23.4023Z" fill="black"/>
<rect x="0.25" y="0.25" width="39.5" height="39.5" rx="19.75" stroke="#9A9A9A" stroke-width="0.5"/>
</svg>
