<svg width="40" height="40" viewBox="0 0 40 40" fill="none" xmlns="http://www.w3.org/2000/svg">
<rect x="0.25" y="0.25" width="39.5" height="39.5" rx="19.75" fill="white"/>
<g clip-path="url(#clip0_372:4268)">
<path d="M29.5881 16.2038C29.3574 15.3422 28.682 14.6628 27.8253 14.4308C26.2602 14 20 14 20 14C20 14 13.7397 14 12.1746 14.4143C11.3344 14.6462 10.6425 15.3422 10.4119 16.2038C10 17.778 10 21.0423 10 21.0423C10 21.0423 10 24.3231 10.4119 25.8807C10.6425 26.7423 11.318 27.4217 12.1746 27.6537C13.7562 28.0845 20 28.0845 20 28.0845C20 28.0845 26.2602 28.0845 27.8253 27.6703C28.682 27.4383 29.3574 26.7589 29.5881 25.8973C29.9999 24.3231 29.9999 21.0588 29.9999 21.0588C29.9999 21.0588 30.0164 17.778 29.5881 16.2038Z" fill="#FF0000"/>
<path d="M23.2137 21.0421L18.0078 18.0264V24.0578L23.2137 21.0421Z" fill="white"/>
</g>
<rect x="0.25" y="0.25" width="39.5" height="39.5" rx="19.75" stroke="#9A9A9A" stroke-width="0.5"/>
<defs>
<clipPath id="clip0_372:4268">
<rect width="20" height="14.0845" fill="white" transform="translate(10 14)"/>
</clipPath>
</defs>
</svg>
